<?xml version="1.0" standalone="no"?>
<!DOCTYPE svg PUBLIC "-//W3C//DTD SVG 20010904//EN"
 "http://www.w3.org/TR/2001/REC-SVG-20010904/DTD/svg10.dtd">
<svg version="1.0" xmlns="http://www.w3.org/2000/svg"
 width="1571.000000pt" height="1571.000000pt" viewBox="0 0 1571.000000 1571.000000"
 preserveAspectRatio="xMidYMid meet">
<metadata>
Created by potrace 1.14, written by Peter Selinger 2001-2017
</metadata>
<g transform="translate(0.000000,1571.000000) scale(0.100000,-0.100000)"
fill="#000000" stroke="none">
<path d="M3699 11066 c-2 -2 -33 -7 -69 -10 -36 -4 -72 -9 -80 -11 -8 -2 -31
-7 -50 -9 -19 -3 -79 -17 -133 -31 -386 -100 -743 -338 -977 -650 -88 -119
-195 -304 -190 -331 1 -4 -3 -10 -8 -13 -12 -7 -68 -172 -88 -259 -28 -121
-41 -251 -38 -394 1 -78 5 -156 8 -173 2 -16 7 -46 10 -65 22 -133 79 -305
141 -431 58 -118 125 -228 281 -464 148 -225 193 -303 224 -390 98 -277 203
-371 515 -462 6 -1 33 -7 60 -13 47 -10 72 -14 148 -24 69 -10 211 -17 422
-21 206 -4 245 -6 335 -21 130 -21 209 -115 218 -261 4 -67 3 -76 -19 -99 -56
-60 -178 -117 -284 -131 -100 -15 -442 -8 -595 11 -19 2 -57 7 -85 10 -27 3
-59 8 -70 10 -11 2 -45 7 -75 11 -30 4 -64 9 -75 12 -95 20 -101 17 -76 -45
19 -44 62 -65 203 -97 21 -4 68 -15 127 -29 50 -12 139 -19 211 -18 554 7 595
6 665 -24 82 -34 135 -113 140 -208 5 -95 -45 -179 -131 -221 -91 -43 -274
-68 -504 -68 -178 0 -304 12 -485 47 -11 2 -40 7 -65 12 -25 4 -47 8 -50 9
-13 3 -97 18 -115 21 -11 1 -36 6 -55 10 l-35 7 19 -29 c40 -63 73 -84 198
-125 68 -23 135 -42 150 -44 15 -2 55 -9 90 -16 35 -6 77 -13 93 -15 17 -1 55
-5 85 -8 30 -4 116 -8 190 -11 181 -6 193 -9 258 -52 61 -41 96 -93 106 -156
17 -107 -111 -239 -257 -265 -23 -4 -142 -7 -264 -7 -123 0 -223 -2 -223 -6 0
-24 153 -132 205 -145 13 -4 53 -13 90 -21 102 -22 279 15 369 76 43 30 113
102 206 210 30 36 89 99 131 140 95 96 121 131 149 206 23 60 24 64 26 590 1
304 -2 546 -7 567 -5 20 -16 44 -24 52 -8 8 -15 18 -15 22 0 10 -70 94 -105
126 -37 34 -157 93 -210 104 -22 5 -188 9 -370 10 -181 0 -341 4 -355 7 -13 4
-40 9 -60 12 -20 3 -46 8 -58 10 -12 3 -32 7 -44 10 -148 32 -281 116 -357
224 -38 54 -53 106 -52 185 0 53 3 64 27 84 l26 23 502 -6 c796 -10 826 -11
975 -51 93 -24 228 -84 277 -123 38 -30 92 -45 108 -32 8 7 40 63 72 126 32
63 60 115 63 115 4 0 12 12 18 28 7 15 31 51 53 80 22 29 40 57 40 62 0 6 5
10 10 10 6 0 10 4 10 10 0 10 85 134 110 161 26 28 44 52 87 119 37 58 51 82
91 156 44 80 123 300 137 380 28 161 32 213 30 364 -2 91 -6 182 -9 202 -13
83 -38 187 -58 248 -12 36 -22 68 -23 72 0 3 -3 10 -7 14 -5 4 -8 13 -8 20 0
20 -58 138 -114 234 -95 162 -250 343 -391 455 -27 22 -52 42 -55 45 -32 34
-357 220 -382 220 -3 0 -23 8 -44 17 -22 9 -41 17 -44 18 -3 0 -34 11 -70 22
-103 34 -142 44 -285 69 -77 14 -455 30 -466 20z"/>
<path d="M14330 10385 c-25 -19 -49 -38 -55 -43 -15 -11 -262 -190 -314 -226
-78 -56 -97 -69 -320 -231 l-221 -160 343 -5 c188 -3 351 -9 363 -14 11 -4 33
-26 48 -49 23 -35 26 -50 22 -89 -2 -27 -12 -62 -20 -79 -9 -18 -16 -36 -16
-42 0 -5 -6 -23 -14 -40 -8 -18 -22 -56 -32 -86 -11 -30 -28 -60 -39 -67 -11
-7 -60 -26 -110 -43 -49 -17 -139 -48 -200 -69 -60 -22 -166 -59 -235 -82 -88
-30 -133 -51 -153 -71 -25 -26 -26 -32 -7 -31 19 1 109 12 126 16 34 7 97 17
129 21 37 4 91 12 214 31 51 8 110 17 131 20 l39 6 -30 -79 c-17 -43 -34 -89
-39 -103 -5 -14 -49 -131 -99 -260 l-91 -234 23 -26 c12 -14 23 -27 25 -30 2
-3 10 4 18 15 8 11 23 31 34 45 10 14 92 124 182 245 90 121 208 280 262 353
54 72 102 133 107 133 5 1 12 2 17 3 4 1 32 6 62 10 30 4 64 10 75 11 11 2 38
7 60 10 22 3 51 7 65 9 14 3 43 7 65 11 22 3 65 10 95 15 30 5 78 12 105 15
28 3 77 10 110 16 33 6 71 13 85 14 41 4 114 16 130 20 8 2 38 7 65 10 99 11
165 24 165 32 0 4 -36 66 -80 139 -44 72 -80 135 -80 138 0 16 -59 78 -68 72
-5 -3 -30 -7 -58 -11 -40 -4 -84 -12 -124 -20 -3 -1 -32 -7 -65 -14 -80 -17
-302 -71 -320 -78 -22 -8 -18 9 8 37 12 14 29 35 37 47 8 11 65 89 125 173 93
128 142 197 258 363 31 45 37 44 -298 51 -190 4 -243 7 -335 20 -71 10 -134
129 -105 199 11 27 -15 20 -65 -18z"/>
<path d="M8965 8078 c-103 -12 -128 -16 -198 -32 -237 -57 -430 -176 -538
-332 -81 -118 -116 -239 -118 -412 -5 -288 109 -475 369 -608 62 -32 192 -79
241 -88 13 -3 24 -5 24 -6 0 -1 7 -3 15 -5 8 -2 35 -8 60 -15 47 -12 63 -16
195 -49 452 -112 496 -126 558 -187 49 -48 69 -95 69 -164 1 -71 -7 -102 -38
-152 -82 -130 -244 -198 -456 -192 -238 6 -363 70 -515 262 -42 53 -91 110
-108 125 -76 71 -198 91 -289 48 -216 -105 -165 -418 104 -632 76 -61 226
-138 320 -164 145 -41 186 -49 340 -64 125 -13 381 -4 475 15 11 3 44 9 74 15
74 14 215 65 281 101 266 146 399 369 398 667 0 90 -17 236 -28 236 -1 0 -3 7
-5 15 -23 106 -139 255 -262 337 -135 91 -210 116 -643 214 -124 27 -232 52
-240 54 -8 2 -35 8 -60 14 -111 26 -219 76 -264 123 -57 61 -69 168 -26 250
45 88 149 155 270 174 117 19 277 6 383 -31 97 -33 162 -81 265 -193 94 -101
150 -138 223 -145 46 -4 151 16 172 33 7 6 25 20 40 31 69 52 93 174 55 278
-32 87 -97 171 -178 231 -18 14 -38 30 -44 35 -16 14 -102 62 -163 90 -59 27
-253 97 -253 90 0 -2 -15 1 -32 6 -102 29 -340 43 -473 27z"/>
<path d="M14189 8069 c-63 -10 -126 -20 -140 -23 -51 -11 -184 -58 -206 -72
-12 -8 -28 -14 -34 -14 -42 0 -289 -204 -289 -239 0 -6 -4 -11 -10 -11 -5 0
-10 -5 -10 -12 0 -6 -6 -19 -13 -27 -14 -17 -57 -114 -62 -141 -2 -8 -4 -15
-5 -15 -2 0 -10 -36 -17 -85 -9 -59 -9 -223 1 -280 20 -121 82 -239 167 -322
42 -40 161 -128 175 -128 2 0 23 -9 47 -19 93 -43 135 -56 472 -141 468 -119
464 -118 512 -140 104 -48 159 -138 150 -244 -7 -83 -29 -130 -92 -191 -87
-86 -194 -124 -358 -129 -154 -5 -280 24 -383 90 -62 39 -104 80 -181 176 -86
109 -95 118 -138 147 -74 51 -167 59 -252 21 -152 -67 -181 -260 -66 -446 48
-77 74 -107 143 -164 30 -25 57 -47 60 -50 49 -49 312 -154 436 -174 243 -40
496 -41 705 -3 123 23 271 80 374 146 225 142 346 374 340 651 -5 191 -58 336
-169 457 -51 57 -147 133 -166 133 -5 0 -10 5 -10 10 0 6 -6 10 -12 10 -7 0
-26 7 -43 16 -85 45 -244 91 -500 144 -27 6 -79 17 -115 26 -332 78 -404 103
-473 164 -120 105 -77 305 83 389 114 59 314 72 485 30 28 -6 54 -16 60 -20 5
-5 15 -9 22 -9 20 0 116 -65 159 -108 21 -21 68 -69 103 -106 82 -86 125 -108
210 -109 155 0 263 96 262 234 0 160 -123 315 -341 432 -139 75 -320 133 -480
153 -106 13 -287 10 -401 -7z"/>
<path d="M10910 8064 c-102 -27 -146 -60 -192 -145 l-23 -44 0 -800 c0 -890 0
-892 51 -1045 94 -281 259 -442 569 -558 17 -6 42 -14 57 -16 15 -3 32 -7 36
-10 5 -3 24 -8 43 -11 89 -13 118 -17 172 -24 67 -9 333 -7 392 2 22 4 58 9
80 12 22 2 55 9 73 14 18 5 35 10 37 10 3 1 7 2 10 2 9 2 19 5 55 13 64 16
188 73 261 122 160 106 264 242 327 430 60 175 60 182 58 1060 -1 593 -4 805
-13 815 -6 8 -12 17 -12 22 -1 17 -31 63 -53 84 -108 99 -313 99 -416 0 -38
-36 -66 -85 -78 -137 -4 -19 -8 -381 -9 -805 -1 -423 -5 -787 -9 -808 -45
-237 -218 -364 -501 -371 -49 -1 -110 2 -135 7 -25 4 -56 10 -70 12 -35 5
-111 35 -131 52 -8 7 -20 13 -25 13 -28 1 -120 113 -148 182 -38 91 -39 117
-41 908 -1 426 -5 791 -10 810 -25 114 -122 200 -235 207 -25 2 -52 5 -60 6
-8 2 -35 -2 -60 -9z"/>
<path d="M5602 8054 c-99 -30 -154 -81 -190 -176 -15 -39 -17 -149 -19 -1134
-2 -1190 -3 -1160 55 -1233 15 -20 50 -47 78 -61 42 -22 62 -25 149 -25 87 0
107 3 150 25 57 29 102 86 119 152 8 31 11 278 11 806 0 419 2 762 5 762 3 0
21 -26 40 -57 19 -32 38 -62 42 -68 11 -13 199 -308 218 -342 8 -15 19 -32 23
-38 15 -20 244 -379 300 -470 7 -10 26 -40 42 -65 17 -26 50 -79 75 -119 25
-39 72 -114 105 -165 33 -52 89 -141 125 -197 70 -111 134 -189 156 -189 8 0
14 -4 14 -9 0 -16 63 -24 195 -25 143 0 174 8 245 64 42 33 83 110 95 175 9
49 13 2194 4 2215 -60 144 -119 185 -270 189 -100 3 -175 -24 -223 -81 -65
-76 -63 -43 -63 -911 0 -433 -3 -790 -5 -793 -3 -2 -23 24 -45 58 -48 76 -162
258 -184 296 -18 29 -46 74 -179 287 -47 75 -92 148 -101 163 -38 63 -304 491
-334 537 -31 49 -95 151 -118 190 -130 215 -186 254 -372 253 -55 -1 -119 -7
-143 -14z"/>
<path d="M557 7984 c-1 -1 -19 -4 -40 -7 -55 -7 -144 -54 -172 -91 -29 -38
-53 -101 -61 -160 -8 -62 -7 -1983 1 -2051 9 -71 25 -112 61 -155 30 -35 93
-78 121 -83 10 -1 23 -5 28 -8 16 -10 117 -12 515 -12 411 0 500 4 620 28 14
3 37 8 53 10 66 12 199 60 277 101 394 204 594 593 593 1154 0 108 -11 288
-18 300 -2 3 -6 24 -9 46 -5 46 -34 170 -46 199 -4 11 -18 47 -31 80 -90 233
-247 408 -464 518 -70 35 -212 84 -282 96 -32 6 -67 13 -78 15 -85 16 -187 20
-598 21 -257 0 -469 0 -470 -1z m898 -478 c130 -18 225 -64 311 -150 142 -142
207 -365 199 -681 -4 -154 -6 -177 -31 -280 -21 -85 -21 -86 -60 -172 -72
-165 -222 -290 -379 -318 -22 -4 -48 -9 -58 -11 -19 -3 -216 -6 -232 -3 -5 1
-14 1 -19 0 -11 -2 -84 -3 -227 -2 l-96 1 0 808 c0 444 3 809 8 812 12 8 526
4 584 -4z"/>
</g>
</svg>
